# xmcd
#
# Track frame offsets:
#	182
#	22572
#	44792
#	56960
#	75327
#	85322
#	97397
#	121195
#	139137
#	157480
#	174417
#	192072
#	206247
#
# Disc length: 2922 seconds
#
# Revision: 0
# Processed by: cddbd v1.5.1PL2 Copyright (c) Steve Scherf et al.
# Submitted via: dBpowerAMP V4.0
#
DISCID=b70b680d
DTITLE=Delta Kings - Damn Thing Bites
DYEAR=1997
DGENRE=Blues-Rock
TTITLE0=Chokin' Kind
TTITLE1=Two Wrongs
TTITLE2=Perfect Sense
TTITLE3=Tell the Truth
TTITLE4=Shake for Me Sister
TTITLE5=You've Got it Wrong
TTITLE6=A Nickel and a Nail
TTITLE7=Freedom Train
TTITLE8=For a Little While
TTITLE9=Don't Call
TTITLE10=Guilty as Charged
TTITLE11=Adding Up
TTITLE12=Talk Talk
EXTD=
EXTT0=
EXTT1=
EXTT2=
EXTT3=
EXTT4=
EXTT5=
EXTT6=
EXTT7=
EXTT8=
EXTT9=
EXTT10=
EXTT11=
EXTT12=
PLAYORDER=
